<svg width="35" height="35" viewBox="0 0 35 35" fill="none" xmlns="http://www.w3.org/2000/svg">
<g clip-path="url(#clip0_249_33811)">
<path d="M12.6426 0.703918H29.4698V14.245H12.6426V0.703918Z" fill="white"/>
<path d="M17.5586 34.4283C19.0105 34.4283 20.1875 33.2531 20.1875 31.8033C20.1875 30.3536 19.0105 29.1783 17.5586 29.1783C16.1067 29.1783 14.9297 30.3536 14.9297 31.8033C14.9297 33.2531 16.1067 34.4283 17.5586 34.4283Z" fill="#E6E6E6"/>
<path d="M26.5029 34.4283C27.9569 34.4283 29.1357 33.2531 29.1357 31.8033C29.1357 30.3536 27.9569 29.1783 26.5029 29.1783C25.0489 29.1783 23.8701 30.3536 23.8701 31.8033C23.8701 33.2531 25.0489 34.4283 26.5029 34.4283Z" fill="#E6E6E6"/>
<path d="M28.9137 30.6911L28.7076 30.3722C28.4699 30.0046 28.144 29.7024 27.7595 29.4932C27.375 29.2839 26.9442 29.1743 26.5065 29.1743C26.0688 29.1743 25.638 29.2839 25.2535 29.4932C24.869 29.7024 24.5431 30.0046 24.3054 30.3722L24.0993 30.6911H19.9654L19.7593 30.3722C19.5216 30.0046 19.1956 29.7024 18.8112 29.4932C18.4267 29.2839 17.9959 29.1743 17.5582 29.1743C17.1204 29.1743 16.6897 29.2839 16.3052 29.4932C15.9207 29.7024 15.5947 30.0046 15.3571 30.3722L15.1509 30.6911H13.8754C13.7538 30.6911 13.6335 30.6672 13.5212 30.6207C13.4089 30.5742 13.3069 30.506 13.2209 30.42C13.135 30.3341 13.0668 30.2321 13.0203 30.1198C12.9738 30.0075 12.9498 29.8871 12.9498 29.7656L8.38428 14.9878H32.7015C32.9174 14.9877 33.1265 15.0631 33.2926 15.2008C33.4588 15.3386 33.5716 15.5301 33.6115 15.7422L33.6348 15.8667L31.1109 29.7695C31.1109 30.0149 31.0134 30.2504 30.8399 30.4239C30.6663 30.5975 30.4309 30.695 30.1854 30.695L28.9137 30.6911Z" fill="#E0E0E0"/>
<path d="M16.6367 7.59497C17.8523 7.59497 18.8378 6.6095 18.8378 5.39386C18.8378 4.17822 17.8523 3.19275 16.6367 3.19275C15.421 3.19275 14.4355 4.17822 14.4355 5.39386C14.4355 6.6095 15.421 7.59497 16.6367 7.59497Z" fill="#94D5D2"/>
<path d="M16.6366 13.0511C17.8544 13.0511 18.8416 12.0656 18.8416 10.85C18.8416 9.63434 17.8544 8.64886 16.6366 8.64886C15.4189 8.64886 14.4316 9.63434 14.4316 10.85C14.4316 12.0656 15.4189 13.0511 16.6366 13.0511Z" fill="#FF8898"/>
<path d="M14.9295 31.2667H13.8757C13.4656 31.2659 13.0708 31.1106 12.7702 30.8316C12.4697 30.5526 12.2853 30.1706 12.254 29.7617L7.52899 14.4667C7.40066 14.2256 5.88788 11.6239 2.08454 11.3322V12.18C2.09174 12.2766 2.07893 12.3736 2.04691 12.465C2.01489 12.5564 1.96436 12.6402 1.89848 12.7112C1.83259 12.7822 1.75277 12.8388 1.66401 12.8775C1.57524 12.9162 1.47944 12.9362 1.3826 12.9362C1.28576 12.9362 1.18996 12.9162 1.10119 12.8775C1.01243 12.8388 0.932606 12.7822 0.866721 12.7112C0.800836 12.6402 0.750306 12.5564 0.71829 12.465C0.686274 12.3736 0.673462 12.2766 0.680655 12.18V10.605C0.680655 10.4183 0.754815 10.2393 0.88682 10.1073C1.01882 9.97528 1.19786 9.90112 1.38454 9.90112C6.1601 9.90112 8.48177 13.0861 8.84343 13.9378C8.85242 13.9594 8.86021 13.9815 8.86677 14.0039L13.6112 29.4311C13.6318 29.4979 13.6422 29.5674 13.6423 29.6372C13.6423 29.696 13.6657 29.7524 13.7072 29.794C13.7488 29.8355 13.8052 29.8589 13.864 29.8589H14.9179C15.0145 29.8517 15.1115 29.8645 15.2029 29.8965C15.2943 29.9286 15.3781 29.9791 15.449 30.045C15.52 30.1109 15.5766 30.1907 15.6154 30.2794C15.6541 30.3682 15.6741 30.464 15.6741 30.5608C15.6741 30.6577 15.6541 30.7535 15.6154 30.8423C15.5766 30.931 15.52 31.0108 15.449 31.0767C15.3781 31.1426 15.2943 31.1931 15.2029 31.2252C15.1115 31.2572 15.0145 31.27 14.9179 31.2628L14.9295 31.2667Z" fill="#576065"/>
<path d="M23.8739 31.2667H20.1912C20.014 31.2535 19.8484 31.1738 19.7276 31.0436C19.6067 30.9134 19.5396 30.7424 19.5396 30.5647C19.5396 30.3871 19.6067 30.216 19.7276 30.0858C19.8484 29.9557 20.014 29.876 20.1912 29.8628H23.8739C23.9705 29.8556 24.0675 29.8684 24.1589 29.9004C24.2503 29.9324 24.3341 29.983 24.4051 30.0489C24.4761 30.1147 24.5327 30.1946 24.5714 30.2833C24.6101 30.3721 24.6301 30.4679 24.6301 30.5647C24.6301 30.6616 24.6101 30.7574 24.5714 30.8461C24.5327 30.9349 24.4761 31.0147 24.4051 31.0806C24.3341 31.1465 24.2503 31.197 24.1589 31.229C24.0675 31.2611 23.9705 31.2739 23.8739 31.2667Z" fill="#576065"/>
<path d="M30.1858 31.2667H29.1358C29.0393 31.2739 28.9422 31.2611 28.8508 31.229C28.7594 31.197 28.6756 31.1465 28.6047 31.0806C28.5337 31.0147 28.4771 30.9349 28.4384 30.8461C28.3996 30.7574 28.3797 30.6616 28.3797 30.5647C28.3797 30.4679 28.3996 30.3721 28.4384 30.2833C28.4771 30.1946 28.5337 30.1147 28.6047 30.0489C28.6756 29.983 28.7594 29.9324 28.8508 29.9004C28.9422 29.8684 29.0393 29.8556 29.1358 29.8628H30.1897C30.2485 29.8628 30.3049 29.8394 30.3465 29.7979C30.388 29.7563 30.4114 29.6999 30.4114 29.6411C30.4081 29.5997 30.4081 29.5581 30.4114 29.5167L32.9119 15.75C32.902 15.6996 32.8749 15.6541 32.8351 15.6215C32.7954 15.5889 32.7456 15.5711 32.6942 15.5711H8.7425C8.64593 15.5783 8.54891 15.5655 8.45751 15.5335C8.36612 15.5015 8.28231 15.4509 8.21133 15.3851C8.14036 15.3192 8.08374 15.2393 8.04503 15.1506C8.00631 15.0618 7.98633 14.966 7.98633 14.8692C7.98633 14.7723 8.00631 14.6765 8.04503 14.5878C8.08374 14.499 8.14036 14.4192 8.21133 14.3533C8.28231 14.2874 8.36612 14.2369 8.45751 14.2049C8.54891 14.1728 8.64593 14.16 8.7425 14.1672H32.7019C33.1334 14.1672 33.5473 14.3384 33.8528 14.6431C34.1582 14.9478 34.3304 15.3613 34.3314 15.7928C34.3347 15.8342 34.3347 15.8758 34.3314 15.9172L31.8153 29.7111C31.7962 30.1303 31.6162 30.5261 31.3127 30.8158C31.0091 31.1056 30.6055 31.2671 30.1858 31.2667Z" fill="#576065"/>
<path d="M17.5584 35C16.9002 34.9992 16.257 34.8033 15.71 34.4371C15.1631 34.0708 14.737 33.5507 14.4857 32.9423C14.2343 32.334 14.169 31.6648 14.2978 31.0193C14.4267 30.3738 14.7441 29.781 15.2098 29.3159C15.6755 28.8507 16.2686 28.534 16.9143 28.4059C17.5599 28.2778 18.229 28.3439 18.8371 28.596C19.4451 28.8481 19.9648 29.2747 20.3304 29.8221C20.696 30.3694 20.8912 31.0129 20.8912 31.6711C20.8891 32.554 20.5372 33.4001 19.9125 34.0241C19.2878 34.648 18.4413 34.999 17.5584 35ZM17.5584 29.7461C17.1785 29.7499 16.8083 29.8661 16.4943 30.0799C16.1803 30.2938 15.9366 30.5958 15.7939 30.9478C15.6511 31.2999 15.6158 31.6863 15.6922 32.0584C15.7687 32.4306 15.9535 32.7717 16.2235 33.039C16.4935 33.3063 16.8365 33.4877 17.2094 33.5604C17.5823 33.6331 17.9683 33.5939 18.3189 33.4476C18.6695 33.3014 18.9691 33.0547 19.1797 32.7385C19.3904 32.4224 19.5028 32.051 19.5028 31.6711C19.4977 31.1588 19.2906 30.6692 18.9265 30.3087C18.5624 29.9483 18.0707 29.7461 17.5584 29.7461Z" fill="#576065"/>
<path d="M26.5027 35C25.8445 34.9992 25.2013 34.8033 24.6544 34.4371C24.1074 34.0708 23.6814 33.5507 23.43 32.9423C23.1787 32.334 23.1133 31.6648 23.2422 31.0193C23.3711 30.3738 23.6884 29.781 24.1541 29.3159C24.6198 28.8507 25.213 28.534 25.8586 28.4059C26.5043 28.2778 27.1734 28.3439 27.7814 28.596C28.3895 28.8481 28.9092 29.2747 29.2748 29.8221C29.6404 30.3694 29.8355 31.0129 29.8355 31.6711C29.8335 32.554 29.4815 33.4001 28.8569 34.0241C28.2322 34.648 27.3857 34.999 26.5027 35ZM26.5027 29.7461C26.1229 29.7499 25.7526 29.8661 25.4386 30.0799C25.1246 30.2938 24.8809 30.5958 24.7382 30.9478C24.5955 31.2999 24.5601 31.6863 24.6366 32.0584C24.713 32.4306 24.8979 32.7717 25.1679 33.039C25.4378 33.3063 25.7809 33.4877 26.1537 33.5604C26.5266 33.6331 26.9127 33.5939 27.2633 33.4476C27.6139 33.3014 27.9134 33.0547 28.1241 32.7385C28.3347 32.4224 28.4472 32.051 28.4472 31.6711C28.4421 31.1588 28.2349 30.6692 27.8708 30.3087C27.5067 29.9483 27.0151 29.7461 26.5027 29.7461Z" fill="#576065"/>
<path d="M29.2602 19.6234H14.5291C14.4325 19.6306 14.3355 19.6177 14.2441 19.5857C14.1527 19.5537 14.0689 19.5032 13.998 19.4373C13.927 19.3714 13.8704 19.2916 13.8316 19.2028C13.7929 19.1141 13.7729 19.0183 13.7729 18.9214C13.7729 18.8246 13.7929 18.7288 13.8316 18.64C13.8704 18.5512 13.927 18.4714 13.998 18.4055C14.0689 18.3397 14.1527 18.2891 14.2441 18.2571C14.3355 18.2251 14.4325 18.2123 14.5291 18.2195H29.2602C29.3568 18.2123 29.4538 18.2251 29.5452 18.2571C29.6366 18.2891 29.7204 18.3397 29.7914 18.4055C29.8624 18.4714 29.919 18.5512 29.9577 18.64C29.9964 18.7288 30.0164 18.8246 30.0164 18.9214C30.0164 19.0183 29.9964 19.1141 29.9577 19.2028C29.919 19.2916 29.8624 19.3714 29.7914 19.4373C29.7204 19.5032 29.6366 19.5537 29.5452 19.5857C29.4538 19.6177 29.3568 19.6306 29.2602 19.6234Z" fill="#576065"/>
<path d="M28.7351 22.9211H15.0539C14.8768 22.9079 14.7112 22.8282 14.5904 22.698C14.4695 22.5679 14.4023 22.3968 14.4023 22.2192C14.4023 22.0415 14.4695 21.8705 14.5904 21.7403C14.7112 21.6101 14.8768 21.5304 15.0539 21.5172H28.7351C28.9122 21.5304 29.0778 21.6101 29.1987 21.7403C29.3195 21.8705 29.3867 22.0415 29.3867 22.2192C29.3867 22.3968 29.3195 22.5679 29.1987 22.698C29.0778 22.8282 28.9122 22.9079 28.7351 22.9211Z" fill="#576065"/>
<path d="M28.21 26.215H16.1077C16.0112 26.2222 15.9141 26.2094 15.8227 26.1773C15.7314 26.1453 15.6475 26.0948 15.5766 26.0289C15.5056 25.963 15.449 25.8832 15.4103 25.7944C15.3715 25.7057 15.3516 25.6099 15.3516 25.513C15.3516 25.4162 15.3715 25.3204 15.4103 25.2316C15.449 25.1429 15.5056 25.063 15.5766 24.9972C15.6475 24.9313 15.7314 24.8807 15.8227 24.8487C15.9141 24.8167 16.0112 24.8039 16.1077 24.8111H28.21C28.3871 24.8243 28.5527 24.904 28.6736 25.0342C28.7944 25.1643 28.8616 25.3354 28.8616 25.513C28.8616 25.6907 28.7944 25.8617 28.6736 25.9919C28.5527 26.1221 28.3871 26.2018 28.21 26.215Z" fill="#576065"/>
<path d="M30.1701 14.9606H28.7779V1.41556H13.3662V14.9722H11.939V1.41556C11.94 1.04044 12.0895 0.680986 12.3547 0.41574C12.62 0.150494 12.9794 0.00102631 13.3545 0L28.7506 0C29.1264 -1.41034e-06 29.4869 0.149013 29.753 0.41437C30.019 0.679727 30.169 1.03977 30.1701 1.41556V14.9606Z" fill="#576065"/>
<path d="M16.6367 6.86781L15.0811 5.31225C15.0091 5.24873 14.9508 5.17115 14.9099 5.08427C14.869 4.99739 14.8462 4.90305 14.8431 4.80707C14.84 4.71108 14.8566 4.61548 14.8918 4.52614C14.9271 4.43679 14.9802 4.3556 15.048 4.28756C15.1157 4.21952 15.1967 4.16607 15.2859 4.1305C15.3751 4.09493 15.4707 4.07798 15.5667 4.08071C15.6627 4.08344 15.7571 4.10578 15.8441 4.14637C15.9312 4.18695 16.009 4.24491 16.0728 4.31669L16.6289 4.87281L18.235 3.27058C18.3686 3.13753 18.5495 3.06299 18.738 3.06336C18.8314 3.06354 18.9238 3.0821 19.01 3.11799C19.0961 3.15388 19.1744 3.20639 19.2403 3.27253C19.3062 3.33866 19.3584 3.41713 19.3939 3.50344C19.4295 3.58975 19.4477 3.68222 19.4475 3.77557C19.4473 3.86892 19.4288 3.96132 19.3929 4.04749C19.357 4.13366 19.3045 4.21193 19.2383 4.27781L16.6367 6.86781Z" fill="#576065"/>
<path d="M16.6367 12.32L15.0811 10.7644C14.962 10.6304 14.8985 10.456 14.9036 10.2768C14.9087 10.0976 14.982 9.92709 15.1085 9.80007C15.235 9.67305 15.4053 9.59909 15.5845 9.5933C15.7636 9.5875 15.9383 9.6503 16.0728 9.76888L16.6289 10.325L18.235 8.72277C18.3675 8.58972 18.5475 8.51477 18.7353 8.51441C18.9231 8.51404 19.1033 8.58829 19.2364 8.72083C19.3694 8.85336 19.4444 9.03332 19.4447 9.22112C19.4451 9.40892 19.3709 9.58917 19.2383 9.72222L16.6367 12.32Z" fill="#576065"/>
<path d="M20.522 4.12219H27.4753V5.52608H20.522V4.12219Z" fill="#576065"/>
<path d="M20.522 9.57446H27.4753V10.9784H20.522V9.57446Z" fill="#576065"/>
</g>
<defs>
<clipPath id="clip0_249_33811">
<rect width="35" height="35" fill="white"/>
</clipPath>
</defs>
</svg>
